<mxfile host="app.diagrams.net" agent="Mozilla/5.0 (Windows NT 10.0; Win64; x64) AppleWebKit/537.36 (KHTML, like Gecko) Chrome/134.0.0.0 Safari/537.36" version="26.1.0">
  <diagram id="R2lEEEUBdFMjLlhIrx00" name="Page-1">
    <mxGraphModel dx="1120" dy="460" grid="1" gridSize="10" guides="1" tooltips="1" connect="1" arrows="1" fold="1" page="1" pageScale="1" pageWidth="850" pageHeight="1100" math="0" shadow="0" extFonts="Permanent Marker^https://fonts.googleapis.com/css?family=Permanent+Marker">
      <root>
        <mxCell id="0" />
        <mxCell id="1" parent="0" />
        <mxCell id="xeynY8ihsG3uAaSLAjJl-1" value="User" style="rounded=0;whiteSpace=wrap;html=1;" vertex="1" parent="1">
          <mxGeometry x="130" y="160" width="90" height="40" as="geometry" />
        </mxCell>
        <mxCell id="xeynY8ihsG3uAaSLAjJl-3" value="username" style="ellipse;whiteSpace=wrap;html=1;" vertex="1" parent="1">
          <mxGeometry x="10" y="120" width="90" height="40" as="geometry" />
        </mxCell>
        <mxCell id="xeynY8ihsG3uAaSLAjJl-4" value="Uid" style="ellipse;whiteSpace=wrap;html=1;" vertex="1" parent="1">
          <mxGeometry x="110" y="80" width="80" height="40" as="geometry" />
        </mxCell>
        <mxCell id="xeynY8ihsG3uAaSLAjJl-5" value="bookid" style="ellipse;whiteSpace=wrap;html=1;" vertex="1" parent="1">
          <mxGeometry x="220" y="100" width="90" height="40" as="geometry" />
        </mxCell>
        <mxCell id="xeynY8ihsG3uAaSLAjJl-7" value="" style="ellipse;whiteSpace=wrap;html=1;" vertex="1" parent="1">
          <mxGeometry x="20" y="210" width="100" height="50" as="geometry" />
        </mxCell>
        <mxCell id="xeynY8ihsG3uAaSLAjJl-8" value="mobile" style="ellipse;whiteSpace=wrap;html=1;" vertex="1" parent="1">
          <mxGeometry x="30" y="215" width="80" height="40" as="geometry" />
        </mxCell>
        <mxCell id="xeynY8ihsG3uAaSLAjJl-12" value="" style="endArrow=none;html=1;rounded=0;exitX=1;exitY=0.225;exitDx=0;exitDy=0;exitPerimeter=0;entryX=0.156;entryY=1.075;entryDx=0;entryDy=0;entryPerimeter=0;" edge="1" parent="1">
          <mxGeometry width="50" height="50" relative="1" as="geometry">
            <mxPoint x="110" y="222" as="sourcePoint" />
            <mxPoint x="144.03999999999996" y="201" as="targetPoint" />
          </mxGeometry>
        </mxCell>
        <mxCell id="xeynY8ihsG3uAaSLAjJl-13" value="" style="endArrow=none;html=1;rounded=0;exitX=0;exitY=0.25;exitDx=0;exitDy=0;" edge="1" parent="1" source="xeynY8ihsG3uAaSLAjJl-1" target="xeynY8ihsG3uAaSLAjJl-3">
          <mxGeometry width="50" height="50" relative="1" as="geometry">
            <mxPoint x="55" y="181" as="sourcePoint" />
            <mxPoint x="100" y="140" as="targetPoint" />
          </mxGeometry>
        </mxCell>
        <mxCell id="xeynY8ihsG3uAaSLAjJl-15" value="" style="endArrow=none;html=1;rounded=0;exitX=0.6;exitY=1.075;exitDx=0;exitDy=0;exitPerimeter=0;" edge="1" parent="1">
          <mxGeometry width="50" height="50" relative="1" as="geometry">
            <mxPoint x="158" y="122" as="sourcePoint" />
            <mxPoint x="170" y="159" as="targetPoint" />
          </mxGeometry>
        </mxCell>
        <mxCell id="xeynY8ihsG3uAaSLAjJl-16" value="" style="endArrow=none;html=1;rounded=0;exitX=0.878;exitY=0;exitDx=0;exitDy=0;exitPerimeter=0;" edge="1" parent="1" source="xeynY8ihsG3uAaSLAjJl-1">
          <mxGeometry width="50" height="50" relative="1" as="geometry">
            <mxPoint x="186" y="177" as="sourcePoint" />
            <mxPoint x="236" y="137" as="targetPoint" />
            <Array as="points">
              <mxPoint x="236" y="137" />
            </Array>
          </mxGeometry>
        </mxCell>
        <mxCell id="xeynY8ihsG3uAaSLAjJl-17" value="Borrow" style="rhombus;whiteSpace=wrap;html=1;" vertex="1" parent="1">
          <mxGeometry x="270" y="225" width="80" height="80" as="geometry" />
        </mxCell>
        <mxCell id="xeynY8ihsG3uAaSLAjJl-18" value="" style="endArrow=classic;html=1;rounded=0;exitX=0.589;exitY=1.025;exitDx=0;exitDy=0;exitPerimeter=0;entryX=0;entryY=0.5;entryDx=0;entryDy=0;" edge="1" parent="1" source="xeynY8ihsG3uAaSLAjJl-1" target="xeynY8ihsG3uAaSLAjJl-17">
          <mxGeometry width="50" height="50" relative="1" as="geometry">
            <mxPoint x="190" y="200" as="sourcePoint" />
            <mxPoint x="272" y="250" as="targetPoint" />
            <Array as="points">
              <mxPoint x="183" y="265" />
            </Array>
          </mxGeometry>
        </mxCell>
        <mxCell id="xeynY8ihsG3uAaSLAjJl-19" value="Book" style="rounded=0;whiteSpace=wrap;html=1;" vertex="1" parent="1">
          <mxGeometry x="450" y="190" width="95" height="40" as="geometry" />
        </mxCell>
        <mxCell id="xeynY8ihsG3uAaSLAjJl-20" value="bookid" style="ellipse;whiteSpace=wrap;html=1;" vertex="1" parent="1">
          <mxGeometry x="425" y="110" width="80" height="40" as="geometry" />
        </mxCell>
        <mxCell id="xeynY8ihsG3uAaSLAjJl-21" value="title" style="ellipse;whiteSpace=wrap;html=1;" vertex="1" parent="1">
          <mxGeometry x="530" y="120" width="80" height="40" as="geometry" />
        </mxCell>
        <mxCell id="xeynY8ihsG3uAaSLAjJl-22" value="authorid" style="ellipse;whiteSpace=wrap;html=1;" vertex="1" parent="1">
          <mxGeometry x="590" y="170" width="80" height="40" as="geometry" />
        </mxCell>
        <mxCell id="xeynY8ihsG3uAaSLAjJl-23" value="availableStatus" style="ellipse;whiteSpace=wrap;html=1;" vertex="1" parent="1">
          <mxGeometry x="550" y="240" width="110" height="50" as="geometry" />
        </mxCell>
        <mxCell id="xeynY8ihsG3uAaSLAjJl-24" value="" style="endArrow=none;html=1;rounded=0;exitX=0.75;exitY=0;exitDx=0;exitDy=0;" edge="1" parent="1" source="xeynY8ihsG3uAaSLAjJl-19">
          <mxGeometry width="50" height="50" relative="1" as="geometry">
            <mxPoint x="530.9849999999999" y="188" as="sourcePoint" />
            <mxPoint x="559" y="161" as="targetPoint" />
          </mxGeometry>
        </mxCell>
        <mxCell id="xeynY8ihsG3uAaSLAjJl-25" value="" style="endArrow=none;html=1;rounded=0;entryX=0;entryY=0.5;entryDx=0;entryDy=0;exitX=1;exitY=0.25;exitDx=0;exitDy=0;" edge="1" parent="1" source="xeynY8ihsG3uAaSLAjJl-19" target="xeynY8ihsG3uAaSLAjJl-22">
          <mxGeometry width="50" height="50" relative="1" as="geometry">
            <mxPoint x="550" y="200" as="sourcePoint" />
            <mxPoint x="569" y="171" as="targetPoint" />
          </mxGeometry>
        </mxCell>
        <mxCell id="xeynY8ihsG3uAaSLAjJl-26" value="" style="endArrow=none;html=1;rounded=0;exitX=0.273;exitY=0;exitDx=0;exitDy=0;exitPerimeter=0;entryX=1;entryY=1;entryDx=0;entryDy=0;" edge="1" parent="1">
          <mxGeometry width="50" height="50" relative="1" as="geometry">
            <mxPoint x="580.03" y="241" as="sourcePoint" />
            <mxPoint x="545" y="231" as="targetPoint" />
          </mxGeometry>
        </mxCell>
        <mxCell id="xeynY8ihsG3uAaSLAjJl-27" value="" style="endArrow=none;html=1;rounded=0;exitX=0.5;exitY=0;exitDx=0;exitDy=0;entryX=0.65;entryY=1.05;entryDx=0;entryDy=0;entryPerimeter=0;" edge="1" parent="1">
          <mxGeometry width="50" height="50" relative="1" as="geometry">
            <mxPoint x="497.5" y="188" as="sourcePoint" />
            <mxPoint x="477" y="150" as="targetPoint" />
          </mxGeometry>
        </mxCell>
        <mxCell id="xeynY8ihsG3uAaSLAjJl-28" value="" style="endArrow=classic;html=1;rounded=0;exitX=1;exitY=0.5;exitDx=0;exitDy=0;entryX=0.442;entryY=1.025;entryDx=0;entryDy=0;entryPerimeter=0;" edge="1" parent="1" source="xeynY8ihsG3uAaSLAjJl-17" target="xeynY8ihsG3uAaSLAjJl-19">
          <mxGeometry width="50" height="50" relative="1" as="geometry">
            <mxPoint x="400" y="200" as="sourcePoint" />
            <mxPoint x="489" y="249" as="targetPoint" />
            <Array as="points">
              <mxPoint x="492" y="265" />
            </Array>
          </mxGeometry>
        </mxCell>
        <mxCell id="xeynY8ihsG3uAaSLAjJl-29" value="1" style="text;html=1;align=center;verticalAlign=middle;resizable=0;points=[];autosize=1;strokeColor=none;fillColor=none;" vertex="1" parent="1">
          <mxGeometry x="180" y="220" width="30" height="30" as="geometry" />
        </mxCell>
        <mxCell id="xeynY8ihsG3uAaSLAjJl-30" value="M" style="text;html=1;align=center;verticalAlign=middle;resizable=0;points=[];autosize=1;strokeColor=none;fillColor=none;" vertex="1" parent="1">
          <mxGeometry x="360" y="240" width="30" height="30" as="geometry" />
        </mxCell>
        <mxCell id="xeynY8ihsG3uAaSLAjJl-31" value="" style="endArrow=classic;html=1;rounded=0;exitX=0.632;exitY=1.075;exitDx=0;exitDy=0;exitPerimeter=0;" edge="1" parent="1">
          <mxGeometry width="50" height="50" relative="1" as="geometry">
            <mxPoint x="520.04" y="230" as="sourcePoint" />
            <mxPoint x="430" y="370" as="targetPoint" />
            <Array as="points">
              <mxPoint x="520" y="370" />
            </Array>
          </mxGeometry>
        </mxCell>
        <mxCell id="xeynY8ihsG3uAaSLAjJl-32" value="1" style="text;html=1;align=center;verticalAlign=middle;resizable=0;points=[];autosize=1;strokeColor=none;fillColor=none;" vertex="1" parent="1">
          <mxGeometry x="482.5" y="330" width="30" height="30" as="geometry" />
        </mxCell>
        <mxCell id="xeynY8ihsG3uAaSLAjJl-33" value="Has" style="rhombus;whiteSpace=wrap;html=1;" vertex="1" parent="1">
          <mxGeometry x="350" y="330" width="80" height="80" as="geometry" />
        </mxCell>
        <mxCell id="xeynY8ihsG3uAaSLAjJl-34" value="" style="rounded=0;whiteSpace=wrap;html=1;" vertex="1" parent="1">
          <mxGeometry x="130" y="350" width="140" height="40" as="geometry" />
        </mxCell>
        <mxCell id="xeynY8ihsG3uAaSLAjJl-35" value="" style="endArrow=classic;html=1;rounded=0;entryX=1;entryY=0.5;entryDx=0;entryDy=0;" edge="1" parent="1" source="xeynY8ihsG3uAaSLAjJl-33" target="xeynY8ihsG3uAaSLAjJl-34">
          <mxGeometry width="50" height="50" relative="1" as="geometry">
            <mxPoint x="290" y="380" as="sourcePoint" />
            <mxPoint x="270" y="340" as="targetPoint" />
          </mxGeometry>
        </mxCell>
        <mxCell id="xeynY8ihsG3uAaSLAjJl-36" value="M" style="text;html=1;align=center;verticalAlign=middle;resizable=0;points=[];autosize=1;strokeColor=none;fillColor=none;" vertex="1" parent="1">
          <mxGeometry x="325" y="338" width="30" height="30" as="geometry" />
        </mxCell>
        <mxCell id="xeynY8ihsG3uAaSLAjJl-37" value="&lt;br&gt;&lt;div&gt;&lt;span style=&quot;color: rgb(0, 0, 0); font-family: Helvetica; font-size: 12px; font-style: normal; font-variant-ligatures: normal; font-variant-caps: normal; font-weight: 400; letter-spacing: normal; orphans: 2; text-align: center; text-indent: 0px; text-transform: none; widows: 2; word-spacing: 0px; -webkit-text-stroke-width: 0px; white-space: normal; background-color: rgb(251, 251, 251); text-decoration-thickness: initial; text-decoration-style: initial; text-decoration-color: initial; float: none; display: inline !important;&quot;&gt;Borrowing_Record&lt;/span&gt;&lt;br&gt;&lt;br&gt;&lt;/div&gt;" style="rounded=0;whiteSpace=wrap;html=1;" vertex="1" parent="1">
          <mxGeometry x="140" y="355" width="120" height="30" as="geometry" />
        </mxCell>
        <mxCell id="xeynY8ihsG3uAaSLAjJl-38" value="Record_Id" style="ellipse;whiteSpace=wrap;html=1;" vertex="1" parent="1">
          <mxGeometry x="20" y="300" width="100" height="40" as="geometry" />
        </mxCell>
        <mxCell id="xeynY8ihsG3uAaSLAjJl-39" value="bookid" style="ellipse;whiteSpace=wrap;html=1;" vertex="1" parent="1">
          <mxGeometry x="10" y="360" width="80" height="40" as="geometry" />
        </mxCell>
        <mxCell id="xeynY8ihsG3uAaSLAjJl-40" value="Uid" style="ellipse;whiteSpace=wrap;html=1;" vertex="1" parent="1">
          <mxGeometry x="60" y="420" width="80" height="40" as="geometry" />
        </mxCell>
        <mxCell id="xeynY8ihsG3uAaSLAjJl-41" value="&lt;div&gt;&lt;br&gt;&lt;/div&gt;borrow_date&lt;div&gt;&lt;br&gt;&lt;/div&gt;" style="ellipse;whiteSpace=wrap;html=1;" vertex="1" parent="1">
          <mxGeometry x="170" y="430" width="100" height="40" as="geometry" />
        </mxCell>
        <mxCell id="xeynY8ihsG3uAaSLAjJl-42" value="&lt;div&gt;&lt;br&gt;&lt;/div&gt;return_date&lt;div&gt;&lt;br&gt;&lt;/div&gt;" style="ellipse;whiteSpace=wrap;html=1;" vertex="1" parent="1">
          <mxGeometry x="140" y="280" width="100" height="40" as="geometry" />
        </mxCell>
        <mxCell id="xeynY8ihsG3uAaSLAjJl-43" value="" style="endArrow=none;html=1;rounded=0;exitX=0.738;exitY=0.025;exitDx=0;exitDy=0;exitPerimeter=0;entryX=0.214;entryY=1;entryDx=0;entryDy=0;entryPerimeter=0;" edge="1" parent="1" source="xeynY8ihsG3uAaSLAjJl-40" target="xeynY8ihsG3uAaSLAjJl-34">
          <mxGeometry width="50" height="50" relative="1" as="geometry">
            <mxPoint x="120" y="232" as="sourcePoint" />
            <mxPoint x="154.03999999999996" y="211" as="targetPoint" />
          </mxGeometry>
        </mxCell>
        <mxCell id="xeynY8ihsG3uAaSLAjJl-44" value="" style="endArrow=none;html=1;rounded=0;exitX=1;exitY=0.5;exitDx=0;exitDy=0;entryX=0;entryY=0.75;entryDx=0;entryDy=0;" edge="1" parent="1" source="xeynY8ihsG3uAaSLAjJl-39" target="xeynY8ihsG3uAaSLAjJl-34">
          <mxGeometry width="50" height="50" relative="1" as="geometry">
            <mxPoint x="129" y="431" as="sourcePoint" />
            <mxPoint x="120" y="380" as="targetPoint" />
          </mxGeometry>
        </mxCell>
        <mxCell id="xeynY8ihsG3uAaSLAjJl-45" value="" style="endArrow=none;html=1;rounded=0;exitX=0.27;exitY=0.1;exitDx=0;exitDy=0;exitPerimeter=0;entryX=0.414;entryY=1.075;entryDx=0;entryDy=0;entryPerimeter=0;" edge="1" parent="1">
          <mxGeometry width="50" height="50" relative="1" as="geometry">
            <mxPoint x="197" y="432" as="sourcePoint" />
            <mxPoint x="187.96000000000004" y="391" as="targetPoint" />
          </mxGeometry>
        </mxCell>
        <mxCell id="xeynY8ihsG3uAaSLAjJl-47" value="" style="endArrow=none;html=1;rounded=0;exitX=1;exitY=1;exitDx=0;exitDy=0;entryX=0;entryY=0.25;entryDx=0;entryDy=0;" edge="1" parent="1" source="xeynY8ihsG3uAaSLAjJl-38" target="xeynY8ihsG3uAaSLAjJl-34">
          <mxGeometry width="50" height="50" relative="1" as="geometry">
            <mxPoint x="149" y="451" as="sourcePoint" />
            <mxPoint x="190" y="420" as="targetPoint" />
          </mxGeometry>
        </mxCell>
        <mxCell id="xeynY8ihsG3uAaSLAjJl-49" value="" style="endArrow=none;html=1;rounded=0;entryX=0.5;entryY=1;entryDx=0;entryDy=0;" edge="1" parent="1" target="xeynY8ihsG3uAaSLAjJl-42">
          <mxGeometry width="50" height="50" relative="1" as="geometry">
            <mxPoint x="190" y="350" as="sourcePoint" />
            <mxPoint x="200" y="430" as="targetPoint" />
          </mxGeometry>
        </mxCell>
        <mxCell id="xeynY8ihsG3uAaSLAjJl-50" value="Librarian" style="rounded=0;whiteSpace=wrap;html=1;" vertex="1" parent="1">
          <mxGeometry x="600" y="338" width="110" height="32" as="geometry" />
        </mxCell>
        <mxCell id="xeynY8ihsG3uAaSLAjJl-51" value="" style="endArrow=classic;html=1;rounded=0;exitX=0.445;exitY=1.031;exitDx=0;exitDy=0;exitPerimeter=0;entryX=1;entryY=0.5;entryDx=0;entryDy=0;" edge="1" parent="1" source="xeynY8ihsG3uAaSLAjJl-50" target="xeynY8ihsG3uAaSLAjJl-52">
          <mxGeometry width="50" height="50" relative="1" as="geometry">
            <mxPoint x="400" y="300" as="sourcePoint" />
            <mxPoint x="580" y="410" as="targetPoint" />
            <Array as="points">
              <mxPoint x="650" y="425" />
            </Array>
          </mxGeometry>
        </mxCell>
        <mxCell id="xeynY8ihsG3uAaSLAjJl-52" value="Manages" style="rhombus;whiteSpace=wrap;html=1;" vertex="1" parent="1">
          <mxGeometry x="500" y="385" width="80" height="80" as="geometry" />
        </mxCell>
        <mxCell id="xeynY8ihsG3uAaSLAjJl-53" value="" style="endArrow=classic;html=1;rounded=0;entryX=0.914;entryY=1.1;entryDx=0;entryDy=0;entryPerimeter=0;" edge="1" parent="1" target="xeynY8ihsG3uAaSLAjJl-34">
          <mxGeometry width="50" height="50" relative="1" as="geometry">
            <mxPoint x="500" y="427" as="sourcePoint" />
            <mxPoint x="250" y="400" as="targetPoint" />
            <Array as="points">
              <mxPoint x="360" y="427" />
              <mxPoint x="260" y="427" />
            </Array>
          </mxGeometry>
        </mxCell>
        <mxCell id="xeynY8ihsG3uAaSLAjJl-54" value="1" style="text;html=1;align=center;verticalAlign=middle;resizable=0;points=[];autosize=1;strokeColor=none;fillColor=none;" vertex="1" parent="1">
          <mxGeometry x="610" y="400" width="30" height="30" as="geometry" />
        </mxCell>
        <mxCell id="xeynY8ihsG3uAaSLAjJl-55" value="M" style="text;html=1;align=center;verticalAlign=middle;resizable=0;points=[];autosize=1;strokeColor=none;fillColor=none;" vertex="1" parent="1">
          <mxGeometry x="295" y="398" width="30" height="30" as="geometry" />
        </mxCell>
        <mxCell id="xeynY8ihsG3uAaSLAjJl-56" value="lib_id" style="ellipse;whiteSpace=wrap;html=1;" vertex="1" parent="1">
          <mxGeometry x="650" y="280" width="80" height="40" as="geometry" />
        </mxCell>
        <mxCell id="xeynY8ihsG3uAaSLAjJl-57" value="lib_name" style="ellipse;whiteSpace=wrap;html=1;" vertex="1" parent="1">
          <mxGeometry x="680" y="393" width="80" height="40" as="geometry" />
        </mxCell>
        <mxCell id="xeynY8ihsG3uAaSLAjJl-58" value="" style="ellipse;whiteSpace=wrap;html=1;" vertex="1" parent="1">
          <mxGeometry x="740" y="315" width="80" height="40" as="geometry" />
        </mxCell>
        <mxCell id="xeynY8ihsG3uAaSLAjJl-59" value="email" style="ellipse;whiteSpace=wrap;html=1;" vertex="1" parent="1">
          <mxGeometry x="750" y="319" width="60" height="32" as="geometry" />
        </mxCell>
        <mxCell id="xeynY8ihsG3uAaSLAjJl-60" value="fname" style="ellipse;whiteSpace=wrap;html=1;" vertex="1" parent="1">
          <mxGeometry x="780" y="385" width="60" height="30" as="geometry" />
        </mxCell>
        <mxCell id="xeynY8ihsG3uAaSLAjJl-62" value="lname" style="ellipse;whiteSpace=wrap;html=1;" vertex="1" parent="1">
          <mxGeometry x="750" y="450" width="60" height="30" as="geometry" />
        </mxCell>
        <mxCell id="xeynY8ihsG3uAaSLAjJl-63" value="" style="endArrow=none;html=1;rounded=0;exitX=0.263;exitY=1.025;exitDx=0;exitDy=0;exitPerimeter=0;entryX=0.5;entryY=0;entryDx=0;entryDy=0;" edge="1" parent="1">
          <mxGeometry width="50" height="50" relative="1" as="geometry">
            <mxPoint x="671.04" y="319" as="sourcePoint" />
            <mxPoint x="655" y="336" as="targetPoint" />
          </mxGeometry>
        </mxCell>
        <mxCell id="xeynY8ihsG3uAaSLAjJl-64" value="" style="endArrow=none;html=1;rounded=0;exitX=1;exitY=0.5;exitDx=0;exitDy=0;" edge="1" parent="1" source="xeynY8ihsG3uAaSLAjJl-57" target="xeynY8ihsG3uAaSLAjJl-60">
          <mxGeometry width="50" height="50" relative="1" as="geometry">
            <mxPoint x="681.04" y="329" as="sourcePoint" />
            <mxPoint x="665" y="346" as="targetPoint" />
          </mxGeometry>
        </mxCell>
        <mxCell id="xeynY8ihsG3uAaSLAjJl-65" value="" style="endArrow=none;html=1;rounded=0;exitX=0.75;exitY=1;exitDx=0;exitDy=0;" edge="1" parent="1" source="xeynY8ihsG3uAaSLAjJl-50">
          <mxGeometry width="50" height="50" relative="1" as="geometry">
            <mxPoint x="682.5" y="372" as="sourcePoint" />
            <mxPoint x="710" y="392" as="targetPoint" />
          </mxGeometry>
        </mxCell>
        <mxCell id="xeynY8ihsG3uAaSLAjJl-67" value="" style="endArrow=none;html=1;rounded=0;entryX=1;entryY=0.375;entryDx=0;entryDy=0;entryPerimeter=0;" edge="1" parent="1" target="xeynY8ihsG3uAaSLAjJl-50">
          <mxGeometry width="50" height="50" relative="1" as="geometry">
            <mxPoint x="740" y="340" as="sourcePoint" />
            <mxPoint x="685" y="366" as="targetPoint" />
          </mxGeometry>
        </mxCell>
        <mxCell id="xeynY8ihsG3uAaSLAjJl-68" value="" style="endArrow=none;html=1;rounded=0;exitX=1;exitY=1;exitDx=0;exitDy=0;entryX=0.367;entryY=0.033;entryDx=0;entryDy=0;entryPerimeter=0;" edge="1" parent="1" source="xeynY8ihsG3uAaSLAjJl-57" target="xeynY8ihsG3uAaSLAjJl-62">
          <mxGeometry width="50" height="50" relative="1" as="geometry">
            <mxPoint x="711.04" y="359" as="sourcePoint" />
            <mxPoint x="695" y="376" as="targetPoint" />
          </mxGeometry>
        </mxCell>
        <mxCell id="xeynY8ihsG3uAaSLAjJl-69" value="&lt;b&gt;&lt;font style=&quot;font-size: 14px;&quot;&gt;Fig. ERD of Library Management System&lt;/font&gt;&lt;/b&gt;" style="text;html=1;align=center;verticalAlign=middle;resizable=0;points=[];autosize=1;strokeColor=none;fillColor=none;" vertex="1" parent="1">
          <mxGeometry x="280" y="490" width="290" height="30" as="geometry" />
        </mxCell>
      </root>
    </mxGraphModel>
  </diagram>
</mxfile>
